#N canvas 555 349 1685 1038 12;
#N canvas 931 364 1121 663 (subpatch) 0;
#X array visualisor 100 float 1;
#A 0 0.5 0.5 0.5 0.5 0.5 0.5 0.5 0.5 0.5 0.5 0.5 0.5 0.5 0.5 0.5 0.5
0.5 0.5 0.5 0.5 0.5 0.5 0.5 0.5 0.5 0.5 0.5 0.5 0.5 0.5 0.5 0.5 0.5
0.5 0.5 0.5 0.5 0.5 0.5 0.5 0.5 0.5 0.5 0.5 0.5 0.5 0.5 0.5 0.5 0.5
0.5 0.5 0.5 0.5 0.5 0.5 0.5 0.5 0.5 0.5 0.5 0.5 0.5 0.5 0.5 0.5 0.5
-0.287731 0.5 0.5 0.5 0.5 0.5 0.5 0.5 0.5 0.5 0.5 0.486501 0.5 0.5
0.5 0.5 0.499995 0.5 0.5 0.5 0.5 0.482928 0.5 -0.465705 0.5 0.5 0.5
0.5 0.5 0.5 0.5 0.5 0.5;
#X coords 0 1 99 0 200 140 1 0 0;
#X restore 882 360 graph;
#N canvas 1091 342 1789 911 subpatch 0;
#X obj 100 101 cnv 15 500 260 empty empty empty 20 12 0 14 -261682
-66577 0;
#X obj 198 129 vradio 50 1 0 4 empty empty PRESETS 2 -8 1 10 -262144
-1 -1 3;
#X floatatom 198 336 5 0 0 0 - - -;
#X obj 123 375 sel 0 1 2 3;
#X obj 123 415 bng 15 250 50 0 empty empty empty 17 7 0 10 -262144
-1 -1;
#X obj 142 415 bng 15 250 50 0 empty empty empty 17 7 0 10 -262144
-1 -1;
#X obj 163 415 bng 15 250 50 0 empty empty empty 17 7 0 10 -262144
-1 -1;
#X obj 182 415 bng 15 250 50 0 empty empty empty 17 7 0 10 -262144
-1 -1;
#X obj 74 490 s 1a;
#X obj 284 204 vsl 20 128 10 1000 0 0 empty empty W 2 -9 1 12 -260097
-1 -1 0 1;
#X obj 330 205 vsl 20 128 10 1000 0 0 empty empty D 4 -9 0 12 -260097
-1 -1 0 1;
#X text 297 157 DECAY;
#X obj 225 396 s 2a;
#X obj 328 403 s 2b;
#X obj 388 409 s 3a;
#X obj 441 410 s 3b;
#X obj 505 405 s 4a;
#X obj 430 234 moonlib/mknob 50 200 10 100 0 0 empty empty VOLUME 4
-6 1 10 -262144 -1 -1 0 1;
#X obj 481 184 moonlib/mknob 50 200 0 1000 0 0 empty empty TONE 11
-6 1 10 -262144 -1 -1 0 1;
#X obj 380 184 moonlib/mknob 50 200 0 2000 0 0 empty empty GAIN 11
-6 0 10 -262144 -1 -1 0 1;
#X obj 391 139 hsl 128 15 0 100 0 0 empty empty THRESHOLD 26 -8 1 10
-262144 -1 -1 0 1;
#X obj 555 398 s 5a;
#X obj 528 320 tgl 30 0 empty empty VISUALISOR -28 -10 1 15 -262144
-1 -1 1 1;
#X obj 641 394 s 5b;
#X msg 76 465 72;
#X msg 128 462 60;
#X obj 128 485 s 1b;
#X msg 186 462 54;
#X obj 186 485 s 1c;
#X msg 233 462 48;
#X obj 233 485 s 1d;
#X text 124 146 GUITAR 1;
#X text 124 196 GUITAR 2;
#X text 143 245 VOX 1;
#X text 143 293 VOX 2;
#X obj 601 101 cnv 15 250 260 empty empty empty 20 12 0 14 -128992
-66577 0;
#X connect 1 0 2 0;
#X connect 2 0 3 0;
#X connect 3 0 4 0;
#X connect 3 1 5 0;
#X connect 3 2 6 0;
#X connect 3 3 7 0;
#X connect 4 0 24 0;
#X connect 5 0 25 0;
#X connect 6 0 27 0;
#X connect 7 0 29 0;
#X connect 9 0 12 0;
#X connect 10 0 13 0;
#X connect 17 0 16 0;
#X connect 18 0 15 0;
#X connect 19 0 14 0;
#X connect 20 0 21 0;
#X connect 22 0 23 0;
#X connect 24 0 8 0;
#X connect 25 0 26 0;
#X connect 27 0 28 0;
#X connect 29 0 30 0;
#X coords 0 -1 1 1 750 260 1 100 100;
#X restore 104 336 pd subpatch;
#N canvas 20 188 1658 818 dontlookhere 1;
#X obj 990 526 *~;
#X floatatom 1116 508 5 0 0 0 - - -;
#X obj 1119 477 hsl 128 15 0 30 0 0 empty empty empty -2 -8 0 10 -262144
-1 -1 4233 1;
#X obj 997 748 expr~ tanh($v1);
#X text 1120 453 Volume;
#X obj 1274 627 expr~ tanh($v1);
#X obj 943 644 clip~ -0.5 0.9;
#X obj 994 685 *~;
#X floatatom 1063 698 5 0 0 0 - - -;
#X obj 1066 667 hsl 128 15 0 127 0 0 empty empty empty -2 -8 0 10 -262144
-1 -1 5000 1;
#X text 1065 643 Volume;
#X obj 809 737 metro 50;
#X obj 470 615 dac~;
#X obj 1007 800 *~ 0.5;
#X obj 1397 315 bng 15 250 50 0 empty empty empty 17 7 0 10 -262144
-1 -1;
#X obj 1497 316 bng 15 250 50 0 empty empty empty 17 7 0 10 -262144
-1 -1;
#X obj 1596 316 bng 15 250 50 0 empty empty empty 17 7 0 10 -262144
-1 -1;
#X msg 1397 354 1;
#X msg 1431 354 1;
#X msg 1496 355 10;
#X msg 1530 355 10;
#X msg 1594 355 10;
#X msg 1628 355 50;
#X text 1053 114 live input;
#X text 1488 221 SEQUENCER;
#X text 1401 256 STEP 1;
#X text 1518 256 STEP 2;
#X text 1614 253 STEP 3;
#X obj 1497 291 delay 100;
#X obj 1596 291 delay 200;
#X obj 515 517 *~;
#X obj 459 245 vsl 15 128 0 1 0 0 empty empty 0-1 0 -9 0 10 -262144
-1 -1 12700 1;
#X floatatom 459 407 5 0 0 0 - - -;
#X obj 533 433 - 1;
#X obj 533 460 abs;
#X floatatom 533 491 5 0 0 0 - - -;
#X text 336 524 dry;
#X text 579 531 wet;
#X obj 666 94 throw~ sound;
#X obj 335 482 catch~ sound;
#X obj 1249 373 f;
#X obj 1365 380 f;
#X obj 989 66 osc~ 200;
#X obj 1246 211 bng 15 250 50 0 empty empty empty 17 7 0 10 -262144
-1 -1;
#X obj 1292 211 bng 15 250 50 0 empty empty empty 17 7 0 10 -262144
-1 -1;
#X floatatom 1246 94 5 0 0 0 - - -;
#X obj 1246 52 env~ 20000 10000;
#X text 1291 131 amplitude threshold (change to suit your needs);
#X text 1381 48 env follower analysis window \, in samples (smaller
numbers will make more responsible - but potentially too responsive)
;
#X text 1086 210 GONE ABOVE THRESHOLD;
#X text 1298 190 GONE BELOW THRESHOLD;
#X msg 828 396 1 \, 0 \$1;
#X obj 828 375 f;
#X obj 846 345 nbx 4 14 10 1000 1 1 empty empty empty 0 -8 0 10 -262144
-1 -1 540.079 256;
#X text 895 345 ms;
#X msg 736 226 1;
#X obj 828 289 bng 15 250 50 0 empty empty empty 17 7 0 10 -262144
-1 -1;
#X obj 828 419 line;
#X floatatom 828 445 5 0 0 0 - - -;
#X text 868 320 how long it takes to decay to more DISTORTED;
#X obj 1246 169 cyclone/togedge;
#X obj 601 216 f;
#X obj 617 188 nbx 4 14 10 1000 1 1 empty empty empty 0 -8 0 10 -262144
-1 -1 345.197 256;
#X text 668 186 ms;
#X obj 601 130 bng 15 250 50 0 empty empty empty 17 7 0 10 -262144
-1 -1;
#X obj 601 260 line;
#X floatatom 601 286 5 0 0 0 - - -;
#X msg 601 237 0 \, 1 \$1;
#X text 641 161 how long it takes to reach DRY singal;
#X obj 855 299 r 2a;
#X obj 555 161 r 2b;
#X obj 424 518 *~;
#X obj 425 549 *~ 5;
#X obj 495 549 *~ 2;
#X obj 949 610 hip~;
#X obj 1005 607 nbx 5 14 -1e+37 1e+37 0 0 empty empty empty 0 -8 0
10 -262144 -1 -1 0 256;
#X obj 1061 579 r 3b;
#X obj 958 566 *~ 1000;
#X obj 1030 556 nbx 5 14 -1e+37 1e+37 0 0 empty empty empty 0 -8 0
10 -262144 -1 -1 0 256;
#X obj 1073 533 r 3a;
#X floatatom 325 589 5 0 0 0 - - -;
#X obj 275 623 r 4a;
#X floatatom 1341 108 5 0 0 0 - - -;
#X obj 1245 132 >;
#X obj 1454 95 r 5a;
#X obj 783 710 r 5b;
#X floatatom 1481 165 5 0 0 0 - - -;
#X obj 1526 164 r 1a;
#X floatatom 1482 192 5 0 0 0 - - -;
#X floatatom 1574 167 5 0 0 0 - - -;
#X floatatom 1574 189 5 0 0 0 - - -;
#X obj 1528 191 r 1b;
#X obj 1624 165 r 1c;
#X obj 1624 191 r 1d;
#X obj 990 114 adc~ 2;
#X obj 799 819 tabwrite~ visualisor;
#X connect 0 0 77 0;
#X connect 1 0 0 1;
#X connect 2 0 1 0;
#X connect 3 0 13 0;
#X connect 6 0 7 0;
#X connect 7 0 3 0;
#X connect 8 0 7 1;
#X connect 9 0 8 0;
#X connect 11 0 95 0;
#X connect 13 0 30 0;
#X connect 13 0 95 0;
#X connect 14 0 17 0;
#X connect 14 0 18 0;
#X connect 14 0 28 0;
#X connect 14 0 41 0;
#X connect 14 0 40 0;
#X connect 15 0 19 0;
#X connect 15 0 20 0;
#X connect 15 0 29 0;
#X connect 16 0 21 0;
#X connect 16 0 22 0;
#X connect 17 0 40 1;
#X connect 18 0 41 1;
#X connect 19 0 2 0;
#X connect 20 0 9 0;
#X connect 21 0 2 0;
#X connect 22 0 9 0;
#X connect 28 0 15 0;
#X connect 29 0 16 0;
#X connect 30 0 73 0;
#X connect 31 0 32 0;
#X connect 32 0 33 0;
#X connect 32 0 71 1;
#X connect 33 0 34 0;
#X connect 34 0 35 0;
#X connect 35 0 30 1;
#X connect 39 0 71 0;
#X connect 40 0 2 0;
#X connect 41 0 9 0;
#X connect 43 0 14 0;
#X connect 43 0 55 0;
#X connect 44 0 56 0;
#X connect 45 0 83 0;
#X connect 46 0 45 0;
#X connect 51 0 57 0;
#X connect 52 0 51 0;
#X connect 53 0 52 1;
#X connect 55 0 64 0;
#X connect 56 0 52 0;
#X connect 57 0 58 0;
#X connect 58 0 31 0;
#X connect 60 0 43 0;
#X connect 60 1 44 0;
#X connect 61 0 67 0;
#X connect 62 0 61 1;
#X connect 64 0 61 0;
#X connect 65 0 66 0;
#X connect 66 0 31 0;
#X connect 67 0 65 0;
#X connect 69 0 53 0;
#X connect 70 0 62 0;
#X connect 71 0 72 0;
#X connect 72 0 12 0;
#X connect 72 0 12 1;
#X connect 73 0 12 1;
#X connect 73 0 12 0;
#X connect 74 0 6 0;
#X connect 75 0 74 1;
#X connect 76 0 75 0;
#X connect 77 0 74 0;
#X connect 78 0 77 1;
#X connect 79 0 78 0;
#X connect 80 0 72 1;
#X connect 81 0 80 0;
#X connect 82 0 83 1;
#X connect 83 0 60 0;
#X connect 84 0 82 0;
#X connect 85 0 11 0;
#X connect 86 0 82 0;
#X connect 87 0 86 0;
#X connect 88 0 82 0;
#X connect 89 0 82 0;
#X connect 90 0 82 0;
#X connect 91 0 88 0;
#X connect 92 0 89 0;
#X connect 93 0 90 0;
#X connect 94 0 0 0;
#X connect 94 0 38 0;
#X connect 94 0 46 0;
#X restore 144 274 pd dontlookhere;
#X coords 0 -1 1 1 100 100 1 100 100;
